<svg width="62" height="65" viewBox="0 0 62 65" fill="none" xmlns="http://www.w3.org/2000/svg">
<path d="M46.1427 4.69223C42.9647 2.95685 39.7858 2.00212 36.2104 1.34981C32.6359 0.696628 27.7462 0.828496 24.3599 1.89839C20.9744 2.96915 18.4495 4.28783 15.835 6.64827C13.2197 9.00783 11.755 11.3489 10.5366 14.6245C9.31725 17.8993 9.4034 22.9375 10.1577 26.3476C10.912 29.7577 11.4676 34.4548 7.46143 35.7252C7.46143 36.8091 7.46143 37.894 7.46143 38.9779C8.66582 38.8399 9.89307 38.3335 10.883 37.6522C11.8729 36.9709 12.606 36.3221 13.2372 35.2592C13.8676 34.1964 14.3212 33.0658 14.4944 31.7691C14.6676 30.4724 14.5559 28.6992 14.5823 27.3735C14.6087 26.0478 14.8469 24.4601 15.1994 23.2434C15.552 22.0276 16.003 20.9428 16.5779 19.8746C17.152 18.8056 17.7287 17.9643 18.5164 17.0658C19.3041 16.1674 19.9511 15.508 20.89 14.7801C21.8298 14.0531 22.7062 13.4878 23.7928 12.9357C24.8803 12.3836 25.9353 11.9107 27.1476 11.5432C28.359 11.1749 29.7049 10.8469 31.021 10.6694C32.337 10.4927 34.0056 10.3775 35.3585 10.4654C36.7115 10.5533 38.3458 10.6922 39.5783 10.9929C40.8108 11.2935 42.279 12.032 42.8091 10.7652C43.3383 9.4975 43.944 8.84168 44.4794 7.68827C45.0139 6.53399 45.6187 5.80344 46.1427 4.69223Z" stroke="white" stroke-width="0.3"/>
<path d="M46.9341 8.912C46.404 9.84651 45.6629 10.7643 45.3517 11.8131C51.9099 16.2632 56.4796 22.774 57.3956 30.7142C58.3126 38.6544 55.5697 47.8781 49.3077 53.2197C49.3077 52.3695 49.3077 51.5203 49.3077 50.6702C48.266 51.0113 47.3376 51.5432 46.6044 52.3625C45.8712 53.1818 45.6638 54.3432 45.0677 55.2214C44.4717 56.0996 43.8554 56.7845 42.9851 57.4465C42.1156 58.1084 41.2128 58.5928 40.1842 59.0412C39.1565 59.4904 38.1491 59.8684 37.0062 60.1709C35.8642 60.4733 34.5139 60.7124 33.2787 60.839C32.0436 60.9656 30.4154 60.999 29.1759 60.868C27.9372 60.7361 26.5456 60.5524 25.4018 60.2465C24.259 59.9396 23.2075 59.552 22.2045 59.0491C21.2005 58.5454 20.4506 58.039 19.6154 57.3295C18.7794 56.621 18.2036 55.8069 17.6392 54.9102C17.0748 54.0135 16.7231 52.9577 16.2326 52.0091C15.742 51.0605 14.9869 50.2799 13.9873 49.8588C12.9878 49.4377 11.3684 49.4139 10.4243 49.9405C9.4792 50.4662 8.62821 51.0579 7.92315 51.835C7.21898 52.6122 8.7548 53.559 9.28579 54.2966C9.81678 55.0342 10.7882 55.7234 11.4836 56.4065C12.1799 57.0887 13.0933 57.7629 13.9056 58.3801C14.7188 58.9963 15.6269 59.5018 16.5385 60.0548C17.4511 60.6069 18.4304 61.0913 19.4449 61.544C20.4585 61.9977 21.4642 62.3669 22.5763 62.7203C23.6884 63.0746 24.8875 63.3867 26.0981 63.5941C27.3095 63.8016 28.6748 63.973 29.9671 64.0328C31.2594 64.0926 32.9297 63.9555 34.186 63.8561C35.4422 63.7568 36.7187 63.435 37.8783 63.1528C39.0378 62.8706 40.1324 62.5735 41.1996 62.1665C42.2669 61.7594 43.2453 61.2698 44.2361 60.8073C45.226 60.344 46.0638 59.7937 46.9605 59.224C47.8572 58.6544 48.7152 58.0566 49.5495 57.4174C50.3838 56.7792 51.0545 56.1093 51.8352 55.3955C52.6159 54.6816 53.2611 53.9045 53.9451 53.1098C54.629 52.315 55.2532 51.486 55.8352 50.6043C56.4163 49.7216 56.978 48.9146 57.4906 47.952C58.0022 46.9884 58.455 46.0021 58.8919 44.9586C59.3297 43.9142 59.6022 42.8443 59.9468 41.7049C60.2923 40.5665 60.4567 39.2487 60.6545 38.017C60.8523 36.7854 60.9991 35.3691 61 34.0548C61.0009 32.7406 60.9376 31.1625 60.7354 29.9239C60.5341 28.6843 60.2853 27.4395 59.9732 26.2904C59.662 25.1414 59.2893 24.1278 58.884 23.072C58.4778 22.017 57.9838 21.0562 57.4633 20.097C56.9438 19.1379 56.433 18.2896 55.8352 17.4175C55.2365 16.5454 54.5763 15.7516 53.9055 14.9516C53.2348 14.1516 52.6079 13.436 51.8352 12.7142C51.0625 11.9924 50.2686 11.3489 49.4616 10.6922C48.6537 10.0364 47.7236 9.55464 46.9341 8.912Z" stroke="white" stroke-width="0.3"/>
<path d="M37.1759 13.3955C33.4361 12.9392 28.877 13.4825 25.6331 15.1265C22.3882 16.7713 20.3434 18.6632 18.9588 22.0794C17.5733 25.4948 19.1451 30.1427 19.7693 33.6153C20.6159 33.0676 21.3869 32.4144 22.2309 31.857C22.2775 33.464 22.1306 35.1212 22.3188 36.6922C24.3284 37.2451 26.0964 38.3827 27.5847 39.8658C29.0731 41.3489 29.6858 43.3287 30.644 45.1581C31.6023 46.9876 34.9183 47.8122 36.5385 46.5163C38.1588 45.2214 39.0264 43.3876 41.044 42.6702C39.6559 42.2298 38.2203 41.9502 36.7363 41.879C36.7363 40.3555 36.7363 38.8311 36.7363 37.3076C38.0181 37.2575 39.2823 38.0223 40.5983 37.741C41.9135 37.4588 41.3078 35.4553 41.3957 34.3186C41.4836 33.1819 41.4018 31.3445 41.3078 30.1867C42.0172 29.9335 42.7566 30.3036 43.5056 30.1867C43.4291 29.2979 43.0203 28.6544 42.8304 27.7849C42.6405 26.9155 42.2678 26.3731 42.0972 25.4412C41.9258 24.5102 41.6119 23.8588 40.5166 24.0328C39.4212 24.2069 38.484 23.9792 37.4396 24.0328C36.3952 24.0865 35.3693 24.0645 34.3627 24.0328C33.3561 24.0012 34.2054 22.1216 33.9232 21.4834C37.2348 21.4834 40.5456 21.4834 43.8572 21.4834C43.2119 19.1924 42.5315 16.9093 42.1869 14.5384C41.2418 14.3362 39.8642 13.5221 39.4546 14.6192C39.0458 15.7164 38.535 16.2289 37.7693 16.9779C37.0045 17.7269 36.0902 18.17 35.037 18.2896C33.9838 18.4091 32.4867 18.3485 31.5566 18.8531C30.6265 19.3568 29.9478 19.8131 29.3447 20.6852C28.7416 21.5572 28.4058 22.5427 28.2968 23.5933C27.372 23.5142 26.2335 24.1111 25.9223 24.999C25.612 25.8869 26.1139 27.1546 27.0643 27.3753C28.0137 27.5968 29.0018 27.6082 29.5935 28.5383C30.1843 29.4693 30.2221 30.6772 30.1429 31.7691C30.0638 32.861 30.4067 33.7559 31.0836 34.5208C31.7605 35.2865 32.1183 35.8491 33.2005 36.0961C34.2818 36.3432 33.8783 38.039 33.9232 39.0658C32.7698 38.89 31.437 38.5603 30.5166 37.8131C29.5961 37.0667 28.8621 36.5621 28.3232 35.435C27.7851 34.308 27.0906 33.3049 27.4177 31.7691C27.7447 30.2333 26.2959 29.8227 25.139 29.3885C23.9821 28.9533 23.6436 27.748 23.2665 26.6896C22.8893 25.6311 23.2533 24.0724 23.9961 23.1608C24.7399 22.25 25.9126 21.937 26.2071 20.8003C26.5016 19.6636 27.2911 18.8935 28.099 18.0329C28.9069 17.1722 29.7763 16.6896 30.8744 16.2368C31.9724 15.7841 33.6928 15.8825 34.8709 15.6619C36.048 15.4403 36.6335 14.308 37.1759 13.3955Z" stroke="white" stroke-width="0.3"/>
<path d="M5.79115 42.3185C5.11863 40.1726 4.75028 38.1753 4.47247 35.901C4.19467 33.6267 4.59203 31.0553 4.91203 28.868C5.23203 26.6816 5.99511 25.0931 6.73093 23.0386C7.46764 20.9849 6.55159 17.9889 7.10983 15.9449C0.958631 23.7049 -0.683565 34.788 2.80215 44.0768C3.83247 43.5854 4.70984 42.7221 5.79115 42.3185Z" stroke="white" stroke-width="0.3"/>
<path d="M55.3733 34.0548C55.121 29.7287 49.5931 27.9766 46.692 30.9999C43.7909 34.0232 45.7645 39.5432 50.0986 39.5933C50.2111 40.8707 50.2683 42.2746 50.0986 43.5493C46.4951 42.5849 41.7971 44.192 39.6151 47.1318C37.4331 50.0724 36.4591 53.7823 32.663 54.7731C28.8679 55.7638 24.4151 54.0548 22.8257 50.5146C21.2362 46.9744 19.1395 44.1665 15.1096 43.6373C11.0797 43.1071 7.07711 44.054 4.03271 46.7142C4.46524 47.9142 5.28019 48.9507 5.87887 50.0548C8.2059 47.1344 13.3672 45.639 16.4081 48.0531C19.449 50.4671 19.3725 54.4742 22.9602 56.3581C26.5479 58.2412 31.3566 58.9542 35.2353 57.697C39.1131 56.439 40.3553 53.2408 42.6261 50.3186C41.7434 52.25 40.7958 54.163 39.9887 56.1208C40.6129 55.7709 41.23 55.3981 41.7689 54.912C42.307 54.4258 42.7369 53.9142 43.0437 53.2856C43.3496 52.6561 43.6626 51.9722 44.0397 51.3805C44.416 50.7889 44.8274 50.301 45.3733 49.8131C45.9184 49.3243 46.5434 49.0342 47.1914 48.73C47.8384 48.4249 48.7448 48.3863 49.3294 47.9669C49.914 47.5467 50.3623 47.094 50.9557 46.6922C51.5492 46.2913 52.0467 45.9511 52.4459 45.2812C52.8441 44.6104 53.099 43.9318 53.2344 43.0808C53.3698 42.2298 53.1615 41.1731 53.2634 40.2087C53.3654 39.2443 53.0577 38.4197 53.3223 37.3665C53.5869 36.3133 52.1716 36.4408 51.3294 36.5164C50.4872 36.592 49.6186 36.49 49.0366 35.908C48.4546 35.3261 48.3711 34.4197 48.699 33.7102C49.027 33.0008 49.776 32.5832 50.5373 32.6491C51.2986 32.7151 51.8999 33.2619 52.1206 33.9669C53.1702 34.1366 54.2894 34.0214 55.3733 34.0548Z" stroke="white" stroke-width="0.3"/>
<path d="M34.8901 49.7032C31.3051 50.3493 28.5763 47.7225 27.4106 44.6992C26.2457 41.675 23.6972 39.8456 20.6194 39.0069C17.5416 38.1682 13.3965 38.8144 10.8022 40.824C14.2519 40.4258 18.2809 41.0579 21.1099 43.0878C23.9381 45.1177 24.0541 48.3484 26.3011 50.7317C28.549 53.115 33.5143 52.9453 34.8901 49.7032Z" stroke="white" stroke-width="0.3"/>
<path d="M46.1427 4.69223C42.9647 2.95685 39.7858 2.00212 36.2104 1.34981C32.6359 0.696628 27.7462 0.828496 24.3599 1.89839C20.9744 2.96915 18.4495 4.28783 15.835 6.64827C13.2197 9.00783 11.755 11.3489 10.5366 14.6245C9.31725 17.8993 9.4034 22.9375 10.1577 26.3476C10.912 29.7577 11.4676 34.4548 7.46143 35.7252C7.46143 36.8091 7.46143 37.894 7.46143 38.9779C8.66582 38.8399 9.89307 38.3335 10.883 37.6522C11.8729 36.9709 12.606 36.3221 13.2372 35.2592C13.8676 34.1964 14.3212 33.0658 14.4944 31.7691C14.6676 30.4724 14.5559 28.6992 14.5823 27.3735C14.6087 26.0478 14.8469 24.4601 15.1994 23.2434C15.552 22.0276 16.003 20.9428 16.5779 19.8746C17.152 18.8056 17.7287 17.9643 18.5164 17.0658C19.3041 16.1674 19.9511 15.508 20.89 14.7801C21.8298 14.0531 22.7062 13.4878 23.7928 12.9357C24.8803 12.3836 25.9353 11.9107 27.1476 11.5432C28.359 11.1749 29.7049 10.8469 31.021 10.6694C32.337 10.4927 34.0056 10.3775 35.3585 10.4654C36.7115 10.5533 38.3458 10.6922 39.5783 10.9929C40.8108 11.2935 42.279 12.032 42.8091 10.7652C43.3383 9.4975 43.944 8.84168 44.4794 7.68827C45.0139 6.53399 45.6187 5.80344 46.1427 4.69223Z" fill="white" stroke="white"/>
<path d="M46.9341 8.912C46.404 9.84651 45.6629 10.7643 45.3517 11.8131C51.9099 16.2632 56.4796 22.774 57.3956 30.7142C58.3126 38.6544 55.5697 47.8781 49.3077 53.2197C49.3077 52.3695 49.3077 51.5203 49.3077 50.6702C48.266 51.0113 47.3376 51.5432 46.6044 52.3625C45.8713 53.1819 45.6638 54.3432 45.0677 55.2214C44.4717 56.0997 43.8554 56.7845 42.9851 57.4465C42.1157 58.1084 41.2128 58.5928 40.1842 59.0412C39.1565 59.4904 38.1491 59.8684 37.0062 60.1709C35.8642 60.4733 34.5139 60.7124 33.2787 60.839C32.0436 60.9656 30.4154 60.999 29.1759 60.868C27.9372 60.7361 26.5456 60.5524 25.4018 60.2465C24.259 59.9396 23.2075 59.552 22.2045 59.0491C21.2005 58.5454 20.4506 58.039 19.6154 57.3295C18.7794 56.621 18.2036 55.8069 17.6392 54.9102C17.0748 54.0135 16.7231 52.9577 16.2326 52.0091C15.742 51.0605 14.9869 50.2799 13.9873 49.8588C12.9878 49.4377 11.3684 49.4139 10.4243 49.9405C9.4792 50.4662 8.62821 51.0579 7.92315 51.835C7.21898 52.6122 8.7548 53.559 9.28579 54.2966C9.81678 55.0342 10.7882 55.7234 11.4836 56.4065C12.1799 57.0887 13.0933 57.7629 13.9056 58.3801C14.7188 58.9963 15.6269 59.5018 16.5385 60.0548C17.4511 60.6069 18.4304 61.0913 19.4449 61.544C20.4585 61.9977 21.4642 62.3669 22.5763 62.7203C23.6884 63.0746 24.8875 63.3867 26.0981 63.5941C27.3095 63.8016 28.6748 63.973 29.9671 64.0328C31.2594 64.0926 32.9297 63.9555 34.186 63.8561C35.4422 63.7568 36.7187 63.435 37.8783 63.1528C39.0378 62.8706 40.1324 62.5735 41.1996 62.1665C42.2669 61.7594 43.2453 61.2698 44.2361 60.8073C45.226 60.344 46.0638 59.7937 46.9605 59.224C47.8572 58.6544 48.7152 58.0566 49.5495 57.4174C50.3838 56.7792 51.0545 56.1093 51.8352 55.3955C52.6159 54.6816 53.2611 53.9045 53.9451 53.1098C54.629 52.315 55.2532 51.486 55.8352 50.6043C56.4163 49.7216 56.9781 48.9146 57.4906 47.952C58.0022 46.9884 58.455 46.0021 58.8919 44.9586C59.3297 43.9142 59.6022 42.8443 59.9468 41.7049C60.2923 40.5665 60.4567 39.2487 60.6545 38.017C60.8523 36.7854 60.9991 35.3691 61 34.0548C61.0009 32.7406 60.9376 31.1625 60.7354 29.9239C60.5341 28.6843 60.2853 27.4395 59.9732 26.2904C59.662 25.1414 59.2893 24.1278 58.884 23.072C58.4778 22.017 57.9838 21.0562 57.4633 20.097C56.9438 19.1379 56.433 18.2896 55.8352 17.4175C55.2365 16.5454 54.5763 15.7516 53.9055 14.9516C53.2348 14.1516 52.6079 13.436 51.8352 12.7142C51.0625 11.9924 50.2686 11.3489 49.4616 10.6922C48.6537 10.0364 47.7236 9.55464 46.9341 8.912Z" fill="white" stroke="white"/>
<path d="M37.1759 13.3955C33.4361 12.9392 28.877 13.4825 25.6331 15.1265C22.3882 16.7713 20.3434 18.6632 18.9588 22.0794C17.5733 25.4948 19.1451 30.1427 19.7693 33.6153C20.6159 33.0676 21.3869 32.4144 22.2309 31.857C22.2775 33.4641 22.1306 35.1212 22.3188 36.6922C24.3284 37.2451 26.0964 38.3827 27.5847 39.8658C29.0731 41.3489 29.6858 43.3287 30.644 45.1581C31.6023 46.9875 34.9183 47.8122 36.5385 46.5163C38.1588 45.2214 39.0264 43.3876 41.044 42.6702C39.6559 42.2298 38.2203 41.9502 36.7363 41.879C36.7363 40.3555 36.7363 38.8311 36.7363 37.3076C38.0181 37.2575 39.2823 38.0223 40.5983 37.741C41.9135 37.4588 41.3078 35.4553 41.3957 34.3186C41.4836 33.1819 41.4018 31.3445 41.3078 30.1867C42.0172 29.9335 42.7566 30.3036 43.5056 30.1867C43.4291 29.2979 43.0203 28.6544 42.8304 27.7849C42.6405 26.9155 42.2678 26.3731 42.0972 25.4412C41.9258 24.5102 41.6119 23.8588 40.5166 24.0328C39.4212 24.2069 38.484 23.9792 37.4396 24.0328C36.3952 24.0865 35.3693 24.0645 34.3627 24.0328C33.3561 24.0012 34.2054 22.1216 33.9232 21.4834C37.2348 21.4834 40.5456 21.4834 43.8572 21.4834C43.2119 19.1924 42.5315 16.9093 42.1869 14.5384C41.2418 14.3362 39.8642 13.5221 39.4546 14.6192C39.0458 15.7164 38.535 16.2289 37.7693 16.9779C37.0045 17.7269 36.0902 18.17 35.037 18.2896C33.9838 18.4091 32.4867 18.3485 31.5566 18.8531C30.6265 19.3568 29.9478 19.8131 29.3447 20.6852C28.7416 21.5572 28.4058 22.5427 28.2968 23.5933C27.372 23.5142 26.2335 24.1111 25.9223 24.999C25.612 25.8869 26.1139 27.1546 27.0643 27.3753C28.0137 27.5968 29.0018 27.6082 29.5935 28.5383C30.1843 29.4693 30.2221 30.6772 30.1429 31.7691C30.0638 32.861 30.4067 33.7559 31.0836 34.5208C31.7605 35.2865 32.1183 35.8491 33.2005 36.0961C34.2818 36.3432 33.8783 38.039 33.9232 39.0658C32.7698 38.89 31.437 38.5603 30.5166 37.8131C29.5961 37.0667 28.8621 36.5621 28.3232 35.435C27.7851 34.308 27.0906 33.3049 27.4177 31.7691C27.7447 30.2333 26.2959 29.8227 25.139 29.3885C23.9821 28.9533 23.6436 27.748 23.2665 26.6896C22.8893 25.6311 23.2533 24.0724 23.9961 23.1608C24.7399 22.25 25.9126 21.937 26.2071 20.8003C26.5016 19.6636 27.2911 18.8935 28.099 18.0329C28.9069 17.1722 29.7763 16.6896 30.8744 16.2368C31.9724 15.7841 33.6928 15.8825 34.8709 15.6619C36.048 15.4403 36.6335 14.308 37.1759 13.3955Z" fill="white" stroke="white"/>
<path d="M5.79115 42.3185C5.11863 40.1726 4.75028 38.1753 4.47247 35.901C4.19467 33.6267 4.59203 31.0553 4.91203 28.868C5.23203 26.6816 5.99511 25.0931 6.73093 23.0386C7.46764 20.9849 6.55159 17.9889 7.10983 15.9449C0.958631 23.7049 -0.683565 34.788 2.80215 44.0768C3.83247 43.5854 4.70984 42.7221 5.79115 42.3185Z" fill="white" stroke="white"/>
<path d="M55.3733 34.0548C55.121 29.7287 49.5931 27.9766 46.692 30.9999C43.7909 34.0232 45.7645 39.5432 50.0986 39.5933C50.2111 40.8707 50.2683 42.2746 50.0986 43.5493C46.4951 42.5849 41.7971 44.192 39.6151 47.1318C37.4331 50.0724 36.4591 53.7823 32.663 54.7731C28.8679 55.7638 24.4151 54.0548 22.8257 50.5146C21.2362 46.9744 19.1395 44.1665 15.1096 43.6373C11.0797 43.1071 7.07711 44.054 4.03271 46.7142C4.46524 47.9142 5.28019 48.9507 5.87887 50.0548C8.2059 47.1344 13.3672 45.639 16.4081 48.0531C19.449 50.4671 19.3725 54.4742 22.9602 56.3581C26.5479 58.2412 31.3566 58.9542 35.2353 57.697C39.1131 56.439 40.3553 53.2408 42.6261 50.3186C41.7434 52.25 40.7958 54.163 39.9887 56.1208C40.6129 55.7709 41.23 55.3981 41.7689 54.912C42.307 54.4258 42.7369 53.9142 43.0437 53.2856C43.3496 52.6561 43.6626 51.9722 44.0397 51.3805C44.416 50.7889 44.8274 50.301 45.3733 49.8131C45.9184 49.3243 46.5434 49.0342 47.1914 48.73C47.8384 48.4249 48.7448 48.3863 49.3294 47.9669C49.914 47.5467 50.3623 47.094 50.9557 46.6922C51.5492 46.2913 52.0467 45.9511 52.4459 45.2812C52.8441 44.6104 53.099 43.9318 53.2344 43.0808C53.3698 42.2298 53.1615 41.1731 53.2634 40.2087C53.3654 39.2443 53.0577 38.4197 53.3223 37.3665C53.5869 36.3133 52.1716 36.4408 51.3294 36.5164C50.4872 36.592 49.6186 36.49 49.0366 35.908C48.4546 35.3261 48.3711 34.4197 48.699 33.7102C49.027 33.0008 49.776 32.5832 50.5373 32.6491C51.2986 32.7151 51.8999 33.2619 52.1206 33.9669C53.1702 34.1366 54.2894 34.0214 55.3733 34.0548Z" fill="white" stroke="white"/>
<path d="M34.8901 49.7032C31.3051 50.3493 28.5763 47.7225 27.4106 44.6992C26.2457 41.675 23.6972 39.8456 20.6194 39.0069C17.5416 38.1682 13.3965 38.8144 10.8022 40.824C14.2519 40.4258 18.2809 41.0579 21.1099 43.0878C23.9381 45.1177 24.0541 48.3484 26.3011 50.7317C28.549 53.115 33.5143 52.9453 34.8901 49.7032Z" fill="white" stroke="white"/>
</svg>
